<svg width="36" height="36" viewBox="0 0 36 36" fill="none" xmlns="http://www.w3.org/2000/svg">
<rect width="36" height="36" rx="10" fill="#C62828"/>
<path d="M17 18C15.9 18 14.9583 17.6083 14.175 16.825C13.3917 16.0417 13 15.1 13 14C13 12.9 13.3917 11.9583 14.175 11.175C14.9583 10.3917 15.9 10 17 10C18.1 10 19.0417 10.3917 19.825 11.175C20.6083 11.9583 21 12.9 21 14C21 15.1 20.6083 16.0417 19.825 16.825C19.0417 17.6083 18.1 18 17 18ZM17 16C17.55 16 18.0208 15.8042 18.4125 15.4125C18.8042 15.0208 19 14.55 19 14C19 13.45 18.8042 12.9792 18.4125 12.5875C18.0208 12.1958 17.55 12 17 12C16.45 12 15.9792 12.1958 15.5875 12.5875C15.1958 12.9792 15 13.45 15 14C15 14.55 15.1958 15.0208 15.5875 15.4125C15.9792 15.8042 16.45 16 17 16ZM28.1 29.5L24.9 26.3C24.55 26.5 24.175 26.6667 23.775 26.8C23.375 26.9333 22.95 27 22.5 27C21.25 27 20.1875 26.5625 19.3125 25.6875C18.4375 24.8125 18 23.75 18 22.5C18 21.25 18.4375 20.1875 19.3125 19.3125C20.1875 18.4375 21.25 18 22.5 18C23.75 18 24.8125 18.4375 25.6875 19.3125C26.5625 20.1875 27 21.25 27 22.5C27 22.95 26.9333 23.375 26.8 23.775C26.6667 24.175 26.5 24.55 26.3 24.9L29.5 28.1L28.1 29.5ZM22.5 25C23.2 25 23.7917 24.7583 24.275 24.275C24.7583 23.7917 25 23.2 25 22.5C25 21.8 24.7583 21.2083 24.275 20.725C23.7917 20.2417 23.2 20 22.5 20C21.8 20 21.2083 20.2417 20.725 20.725C20.2417 21.2083 20 21.8 20 22.5C20 23.2 20.2417 23.7917 20.725 24.275C21.2083 24.7583 21.8 25 22.5 25ZM9 26V23.225C9 22.6583 9.14167 22.1333 9.425 21.65C9.70833 21.1667 10.1 20.8 10.6 20.55C11.45 20.1167 12.4083 19.75 13.475 19.45C14.5417 19.15 15.725 19 17.025 19C16.825 19.3 16.6542 19.6208 16.5125 19.9625C16.3708 20.3042 16.2583 20.6583 16.175 21.025C15.175 21.1083 14.2833 21.2792 13.5 21.5375C12.7167 21.7958 12.0583 22.0667 11.525 22.35C11.3583 22.4333 11.2292 22.5542 11.1375 22.7125C11.0458 22.8708 11 23.0417 11 23.225V24H16.175C16.2583 24.3667 16.3708 24.7167 16.5125 25.05C16.6542 25.3833 16.825 25.7 17.025 26H9Z" fill="white"/>
</svg>
