<svg width="36" height="36" viewBox="0 0 36 36" fill="none" xmlns="http://www.w3.org/2000/svg">
<rect width="36" height="36" rx="10" fill="#C62828"/>
<path d="M12 28C11.1667 28 10.4583 27.7083 9.875 27.125C9.29167 26.5417 9 25.8333 9 25V22H12V8L13.5 9.5L15 8L16.5 9.5L18 8L19.5 9.5L21 8L22.5 9.5L24 8L25.5 9.5L27 8V25C27 25.8333 26.7083 26.5417 26.125 27.125C25.5417 27.7083 24.8333 28 24 28H12ZM24 26C24.2833 26 24.5208 25.9042 24.7125 25.7125C24.9042 25.5208 25 25.2833 25 25V11H14V22H23V25C23 25.2833 23.0958 25.5208 23.2875 25.7125C23.4792 25.9042 23.7167 26 24 26ZM15 15V13H21V15H15ZM15 18V16H21V18H15ZM23 15C22.7167 15 22.4792 14.9042 22.2875 14.7125C22.0958 14.5208 22 14.2833 22 14C22 13.7167 22.0958 13.4792 22.2875 13.2875C22.4792 13.0958 22.7167 13 23 13C23.2833 13 23.5208 13.0958 23.7125 13.2875C23.9042 13.4792 24 13.7167 24 14C24 14.2833 23.9042 14.5208 23.7125 14.7125C23.5208 14.9042 23.2833 15 23 15ZM23 18C22.7167 18 22.4792 17.9042 22.2875 17.7125C22.0958 17.5208 22 17.2833 22 17C22 16.7167 22.0958 16.4792 22.2875 16.2875C22.4792 16.0958 22.7167 16 23 16C23.2833 16 23.5208 16.0958 23.7125 16.2875C23.9042 16.4792 24 16.7167 24 17C24 17.2833 23.9042 17.5208 23.7125 17.7125C23.5208 17.9042 23.2833 18 23 18ZM12 26H21V24H11V25C11 25.2833 11.0958 25.5208 11.2875 25.7125C11.4792 25.9042 11.7167 26 12 26Z" fill="white"/>
</svg>
